<?xml version="1.0" encoding="utf-8"?>
<!-- Generator: Adobe Illustrator 19.0.0, SVG Export Plug-In . SVG Version: 6.00 Build 0)  -->
<svg version="1.1" id="Layer_1" xmlns="http://www.w3.org/2000/svg" xmlns:xlink="http://www.w3.org/1999/xlink" x="0px" y="0px"
	 viewBox="-79 321 640 640" style="enable-background:new -79 321 640 640;" xml:space="preserve">
<style type="text/css">
	.st0{opacity:0.7;fill:#FFFFFF;}
	.st1{fill:#FFFFFF;}
</style>
<desc>Created with Fabric.js 4.6.0</desc>
<polygon class="st0" points="241,378.1 326.4,551.2 517.4,578.9 379.2,713.7 411.8,903.9 241,814.1 70.2,903.9 102.8,713.7 
	-35.4,578.9 155.6,551.2 "/>
<path class="st1" d="M46.2,936.8L83.4,720L-74.1,566.4l217.7-31.6L241,337.4l97.4,197.3l217.7,31.6L398.6,720l37.2,216.9L241,834.4
	L46.2,936.8z M241,793.8L387.9,871l-28.1-163.6l118.9-115.9l-164.3-23.9L241,418.8l-73.5,148.9L3.2,591.5l118.9,115.9L94.1,871
	L241,793.8z"/>
</svg>
